<?xml version="1.0" standalone="no"?>
<!DOCTYPE svg PUBLIC "-//W3C//DTD SVG 20010904//EN"
 "http://www.w3.org/TR/2001/REC-SVG-20010904/DTD/svg10.dtd">
<svg version="1.0" xmlns="http://www.w3.org/2000/svg"
 width="480.000000pt" height="480.000000pt" viewBox="0 0 480.000000 480.000000"
 preserveAspectRatio="xMidYMid meet">

<g transform="translate(0.000000,480.000000) scale(0.100000,-0.100000)"
fill="#000000" stroke="none">
<path d="M0 2400 l0 -2400 2400 0 2400 0 0 2400 0 2400 -2400 0 -2400 0 0
-2400z m3531 1848 c194 -53 336 -136 470 -275 127 -131 204 -272 251 -459 l23
-89 0 -1030 0 -1030 -28 -100 c-29 -108 -74 -210 -131 -298 -45 -72 -162 -195
-240 -253 -83 -63 -223 -129 -342 -162 l-99 -27 -1035 0 -1035 0 -96 27 c-195
53 -337 137 -470 275 -127 131 -204 272 -251 459 l-23 89 0 1030 0 1030 28
100 c29 108 74 210 131 298 42 67 157 190 229 245 125 97 317 174 477 191 41
5 518 8 1060 7 l985 -2 96 -26z"/>
<path d="M1341 4109 c-299 -59 -538 -278 -633 -579 l-23 -75 0 -1055 0 -1055
23 -75 c86 -272 290 -476 562 -562 l75 -23 1050 0 c1184 0 1098 -5 1270 79
204 100 356 281 427 506 l23 75 0 1055 0 1055 -23 75 c-85 270 -282 469 -557
562 l-70 23 -1040 2 c-572 0 -1060 -3 -1084 -8z m2157 -440 c99 -21 175 -117
175 -219 0 -123 -100 -223 -223 -223 -123 0 -223 99 -223 223 0 117 87 210
215 229 4 1 29 -4 56 -10z m-998 -299 c115 -14 218 -44 318 -90 219 -103 403
-301 491 -530 71 -183 85 -400 37 -585 -91 -351 -360 -620 -712 -711 -125 -32
-305 -36 -429 -10 -197 43 -346 125 -491 270 -197 197 -288 417 -286 696 1
191 51 360 156 523 42 67 157 190 229 245 125 97 318 174 477 191 109 12 117
12 210 1z"/>
<path d="M2235 3054 c-237 -59 -435 -261 -491 -500 -23 -97 -15 -275 15 -364
68 -199 233 -364 431 -430 89 -31 268 -38 363 -16 245 57 446 258 503 504 23
95 15 274 -15 362 -68 199 -232 363 -431 431 -85 29 -284 36 -375 13z"/>
</g>
</svg>
